<svg xmlns="http://www.w3.org/2000/svg" width="184" height="185" viewBox="0 0 184 185">
  <path d="m183.7 0.81h-183.4v183.4h183.4v-183.4z" fill="#000"/>
  <path d="m173.2 160.4c0.77-9.06-2.21-16.48-10.28-21.62l-17.49-9.81 2.17-3.82c0.93-1.67 0.24-3.44-1.27-4.25l-12.64-8c-1.86-1.19-3.67-0.7-4.65 1.05l-2.12 3.87-7.42-4.42 1.69-3c0.87-1.57 0.33-3.49-1.43-4.08l-12.64-8c-1.7-0.92-3.67-0.29-4.55 1.33l-1.81 3.05-7.37-7.95 0.54-5.19 2.87 0.34c1.86 0.25 2.93-1.09 3.27-2.56l3.38-14.12c0.54-2.12-0.73-3.54-2.6-3.98l-1.91-0.49 0.54-4.94 2.62 0.44c1.7 0.34 2.98-0.73 3.37-2.35l3.07-15.17c0.44-1.81-0.74-3.33-2.44-3.67l-2.26-0.49 3.67-17.59c0.69-2.17-0.59-3.41-2.45-3.65l-21.29-4.07c-4.48-0.49-7.1 0.24-9.46 3.01-2.36 2.68-3.19 3.32-6.36 2.59l-11.93-2.49c-2.36-0.54-3.64-1.46-4.23-4.47-1.47-5.96-5.66-7.72-14.52-9.48-2.16-0.49-3.24 0.88-3.68 2.64l-25.35 99.04-0.39 1.86-0.05 0.05c-1.03 4.37-1.42 8.79-1.37 13.27l-0.15 0.59 0.05 0.44c-0.2 2.36-0.3 4.77-0.4 7.19 0.4 9.5 1.23 18.41 5.56 28.1-3.69 0.25-5.9 3.17-5.9 6.33v9.15c0 1.97 1.13 3.15 3.09 3.15h55.04c1.91 0 2.7-0.54 3.98-1.62 4.43-3.31 8.52-4.69 13.69-4.69 10.34 0 19.91 2.02 30.54 5.18 1.81 0.64 3.33 0.98 4.99 0.98h57.79c1.96 0 3.09-1.33 3.09-3.1v-7.71c0-3.4-1.71-5.87-4.6-6.87zm-41.27-38.49 1.61-2.77 8.21 5.71-15.96 26.2c-1.37 2.41-5.46 2.36-7.57 0.35-2.12-1.87-2.02-4.39-0.5-6.8l14.21-22.69zm-25.4-17.01 8.8 5.06-15.61 26.2c-1.61 2.86-4.02 2.57-6.38 1.29-2.61-1.33-3.3-4.25-2.02-6.71l15.21-25.84zm-8.81-30.5-2.26 9.55-39.64-8.35c-3.28-0.79-4.26-3.25-3.77-5.77 0.59-2.91 2.25-4.78 6.18-3.99l39.49 8.56zm4.77-26.79-2.37 10.04-39.05-8.85c-3.48-0.94-4.27-3.3-3.72-5.77 0.59-2.71 2.9-4.24 5.87-3.7l39.27 8.28zm-64.04-35.6 2.51 0.49c3.27 0.84 4.69 2.26 5.23 5.18 1.03 4.93 3.95 7.54 10.27 8.77l10.74 2.17c5.02 1.03 8.19-1.08 10.76-4.09 1.17-1.38 3.03-1.77 5.5-1.43l18.04 3.11-3.13 14.94-33.57-7.22c-6.82-1.57-12.08 2.2-13.4 8.21-1.57 6.8 2.76 11.83 8.7 12.91l33.83 7.95-0.74 4.42-33.87-7.31c-6.84-1.57-12.1 3.17-12.94 8.64-1.17 6.61 2.86 11.18 9.19 12.36l33.57 7.12-0.98 5.18-29.04 13.65c-4.97 2.26-7.68 6.04-9.1 11.32-2.87 8.7-11.57 13.53-20.9 11.82-9.62-1.87-16.4-10.37-14.79-19.96l24.12-98.23zm133.9 160.6-55.47-0.1c-1.08 0-1.77-0.19-2.99-0.64-10.73-3.51-21.61-5.52-32.59-5.52-6.58 0-12.27 2.51-17.18 6.21h-53.11v-7.41l1.76-0.2c2.16 0 3.92 0.39 5.88 0.39h40.77c2.47 0 3.3-1.42 3.3-2.7 0-1.67-1.13-2.75-3.3-2.75h-41.64c-4.03-6.66-5.69-15.57-5.69-23.77v-10.82c4.53 6.56 10.95 10.43 19.46 10.67 11.33 0.25 21.33-7.4 24.15-17.65 0.88-3.16 2.89-5.32 5.76-6.65l27.8-12.91 9.06 8.75-11.74 21.55c-3.07 5.47 0.1 12.69 7.32 14.6 4.97 1.08 8.9-1.33 11.12-5.71l11.48-19.79 7.82 5.03-11.94 20.67c-3.28 5.61 0.3 12.02 6.82 14.24 4.87 1.52 9.25-0.94 11.11-4.96l11.89-19.49 0.44 0.2 17.39 9.7c6.13 3.56 8.35 10.22 7.95 16.33h-26.82c-2.46 0-3.15 1.23-3.15 2.51 0 1.67 1.37 2.85 4.24 2.85h20.19c3.28 0 6.45-0.49 9.87-0.29l0.04 7.66z" fill="#FEFFFE"/>
</svg>